<svg xmlns="http://www.w3.org/2000/svg" viewBox="0 0 31 31"><defs><style>.cls-1{fill:#231f20}</style></defs><title>instagram</title><g id="Layer_2" data-name="Layer 2"><g id="Layer_1-2" data-name="Layer 1"><path class="cls-1" d="M15.5 31A15.5 15.5 0 1 1 31 15.5 15.52 15.52 0 0 1 15.5 31zm0-30A14.5 14.5 0 1 0 30 15.5 14.52 14.52 0 0 0 15.5 1z"/><g id="_Group_" data-name="&lt;Group&gt;"><path id="_Compound_Path_" data-name="&lt;Compound Path&gt;" d="M18.73 7.5h-6.46a4.77 4.77 0 0 0-4.77 4.77v6.47a4.77 4.77 0 0 0 4.77 4.77h6.47a4.77 4.77 0 0 0 4.77-4.77v-6.47a4.77 4.77 0 0 0-4.78-4.77zm3.16 11.23a3.16 3.16 0 0 1-3.16 3.16h-6.46a3.16 3.16 0 0 1-3.16-3.16v-6.46a3.16 3.16 0 0 1 3.16-3.16h6.47a3.16 3.16 0 0 1 3.16 3.16v6.47z"/><path id="_Compound_Path_2" data-name="&lt;Compound Path&gt;" d="M15.5 11.36a4.14 4.14 0 1 0 4.14 4.14 4.14 4.14 0 0 0-4.14-4.14zm0 6.67A2.53 2.53 0 1 1 18 15.5a2.53 2.53 0 0 1-2.5 2.5z"/><circle id="_Path_" data-name="&lt;Path&gt;" cx="19.65" cy="11.39" r=".99"/></g></g></g></svg>