<svg xmlns="http://www.w3.org/2000/svg" preserveAspectRatio="xMidYMid" width="48" height="64" viewBox="0 0 24 32"><defs><style>.cls-1 { fill: #000; fill-rule: evenodd; }</style></defs><path d="M23 14h-1v4h1c.6 0 1 .4 1 1s-.4 1-1 1h-1.7l-7.5 5 7.8 5.2c.4.3.5 1 .2 1.4-.2.2-.5.4-.8.4-.2 0-.4 0-.6-.2L12 26.2l-8.4 5.6-.6.2c-.3 0-.6-.2-.8-.4-.3-.5-.2-1 .2-1.4l7.8-5.2-7.5-5H1c-.6 0-1-.4-1-1s.4-1 1-1h1v-4H1c-.6 0-1-.4-1-1V1c0-.6.4-1 1-1s1 .4 1 1v3h20V1c0-.6.4-1 1-1s1 .4 1 1v12c0 .6-.4 1-1 1zm-11 9.8l5.7-3.8H6.3l5.7 3.8zM4 18h16v-4H4v4zM22 6H2v6h20V6z" class="cls-1"/></svg>