<svg xmlns="http://www.w3.org/2000/svg" viewBox="0 0 31 31"><defs><style>.cls-1{fill:#231f20}</style></defs><title>twitter</title><g id="Layer_2" data-name="Layer 2"><g id="Layer_1-2" data-name="Layer 1"><path class="cls-1" d="M15.5 31A15.5 15.5 0 1 1 31 15.5 15.52 15.52 0 0 1 15.5 31zm0-30A14.5 14.5 0 1 0 30 15.5 14.52 14.52 0 0 0 15.5 1z"/><path d="M24.12 10.16a7.06 7.06 0 0 1-2 .56 3.55 3.55 0 0 0 1.55-2 7.13 7.13 0 0 1-2.25.86 3.54 3.54 0 0 0-6 3.22 10 10 0 0 1-7.34-3.65 3.54 3.54 0 0 0 1.09 4.72 3.54 3.54 0 0 1-1.6-.44 3.54 3.54 0 0 0 2.84 3.47 3.58 3.58 0 0 1-.93.12 3.39 3.39 0 0 1-.67-.02 3.54 3.54 0 0 0 3.3 2.46A7.09 7.09 0 0 1 7.73 21a7.51 7.51 0 0 1-.84 0 10.05 10.05 0 0 0 15.48-8.47V12a7.06 7.06 0 0 0 1.75-1.84z"/></g></g></svg>